<svg width="40" height="36" viewBox="0 0 40 36" fill="none" xmlns="http://www.w3.org/2000/svg">
<rect width="40" height="35.14" fill="#607D8B"/>
<path d="M26.6562 11C26.8854 11 27 11.1146 27 11.3438V19.6562C27 19.8854 26.8854 20 26.6562 20H13.3438C13.1146 20 13 19.8854 13 19.6562V11.3438C13 11.1146 13.1146 11 13.3438 11H26.6562ZM26 19V12H14V19H26ZM21.4375 23H18.5625C17.8333 23 17.4792 22.9271 17.5 22.7812C17.5 22.7396 17.5417 22.6875 17.625 22.625C17.7083 22.5625 17.8385 22.4792 18.0156 22.375C18.1927 22.2708 18.3281 22.1823 18.4219 22.1094C18.5156 22.0365 18.5625 21.9688 18.5625 21.9062L18.5938 20.5H20H21.4062C21.4271 21.3542 21.4375 21.8229 21.4375 21.9062C21.4375 21.9688 21.4844 22.0365 21.5781 22.1094C21.6719 22.1823 21.8073 22.2708 21.9844 22.375C22.1615 22.4792 22.2917 22.5625 22.375 22.625C22.625 22.8125 22.5104 22.9271 22.0312 22.9688L21.4375 23Z" fill="white"/>
</svg>
