<svg width="13" height="18" viewBox="0 0 13 18" fill="none" xmlns="http://www.w3.org/2000/svg">
<g clip-path="url(#clip0_69_1654)">
<path d="M6.5 6.04492V11.6699M3.375 11.6699H2.125C1.95924 11.6699 1.80027 11.7358 1.68306 11.853C1.56585 11.9702 1.5 12.1292 1.5 12.2949V14.7949C1.5 14.9607 1.56585 15.1197 1.68306 15.2369C1.80027 15.3541 1.95924 15.4199 2.125 15.4199H10.875C11.0408 15.4199 11.1997 15.3541 11.3169 15.2369C11.4342 15.1197 11.5 14.9607 11.5 14.7949V12.2949C11.5 12.1292 11.4342 11.9702 11.3169 11.853C11.1997 11.7358 11.0408 11.6699 10.875 11.6699H9.625M4 8.54492L6.5 5.41992L9 8.54492M9.625 13.5449H9.63125" stroke="#888888" stroke-width="1.5" stroke-linecap="round" stroke-linejoin="round"/>
</g>
<defs>
<clipPath id="clip0_69_1654">
<rect width="12" height="17" fill="white" transform="translate(0.25 0.699951)"/>
</clipPath>
</defs>
</svg>
