<svg width="10" height="13" viewBox="0 0 10 13" fill="none" xmlns="http://www.w3.org/2000/svg">
<path d="M0 1.46753C0 1.15258 0.125111 0.850539 0.347811 0.62784C0.57051 0.40514 0.872555 0.280029 1.1875 0.280029H5.9375C6.09496 0.280063 6.24596 0.342641 6.35728 0.453998L9.32603 3.42275C9.43739 3.53407 9.49997 3.68507 9.5 3.84253V10.9675C9.5 11.2825 9.37489 11.5845 9.15219 11.8072C8.92949 12.0299 8.62744 12.155 8.3125 12.155H1.1875C0.872555 12.155 0.57051 12.0299 0.347811 11.8072C0.125111 11.5845 0 11.2825 0 10.9675V1.46753ZM8.06669 3.84253L5.9375 1.71334V3.84253H8.06669ZM4.75 1.46753H1.1875V10.9675H8.3125V5.03003H5.34375C5.18628 5.03003 5.03525 4.96747 4.92391 4.85612C4.81256 4.74477 4.75 4.59375 4.75 4.43628V1.46753ZM4.75 6.21753C4.90747 6.21753 5.0585 6.28009 5.16984 6.39143C5.28119 6.50278 5.34375 6.65381 5.34375 6.81128V7.40503H5.9375C6.09497 7.40503 6.246 7.46759 6.35734 7.57893C6.46869 7.69028 6.53125 7.84131 6.53125 7.99878C6.53125 8.15625 6.46869 8.30727 6.35734 8.41862C6.246 8.52997 6.09497 8.59253 5.9375 8.59253H5.34375V9.18628C5.34375 9.34375 5.28119 9.49477 5.16984 9.60612C5.0585 9.71747 4.90747 9.78003 4.75 9.78003C4.59253 9.78003 4.4415 9.71747 4.33016 9.60612C4.21881 9.49477 4.15625 9.34375 4.15625 9.18628V8.59253H3.5625C3.40503 8.59253 3.25401 8.52997 3.14266 8.41862C3.03131 8.30727 2.96875 8.15625 2.96875 7.99878C2.96875 7.84131 3.03131 7.69028 3.14266 7.57893C3.25401 7.46759 3.40503 7.40503 3.5625 7.40503H4.15625V6.81128C4.15625 6.65381 4.21881 6.50278 4.33016 6.39143C4.4415 6.28009 4.59253 6.21753 4.75 6.21753Z" fill="#777777"/>
</svg>
