<svg width="15" height="18" viewBox="0 0 15 18" fill="none" xmlns="http://www.w3.org/2000/svg">
<g clip-path="url(#clip0_69_1414)">
<path d="M3.92694 2.5L6.90709 2.5C7.28596 2.50008 7.64929 2.65065 7.91715 2.91859L11.9959 6.99738C12.3187 7.32022 12.5001 7.75805 12.5001 8.21459C12.5001 8.67112 12.3187 9.10895 11.9959 9.43179L9.43008 11.9976C9.10724 12.3204 8.66941 12.5018 8.21288 12.5018C7.75634 12.5018 7.31851 12.3204 6.99567 11.9976L2.91688 7.91886C2.64894 7.65099 2.49837 7.28767 2.49829 6.9088L2.49829 3.92865C2.49829 3.54975 2.64881 3.18636 2.91673 2.91844C3.18465 2.65052 3.54804 2.5 3.92694 2.5Z" stroke="#464646" stroke-linecap="round" stroke-linejoin="round"/>
<path d="M11.7845 13.2149L10.6473 14.3521C10.0016 14.9976 9.12594 15.3603 8.21288 15.3603C7.29981 15.3603 6.42414 14.9976 5.77846 14.3521L2.49829 11.0719M5.35558 5.3573L5.35558 5.35016" stroke="#464646" stroke-linecap="round" stroke-linejoin="round"/>
</g>
<defs>
<clipPath id="clip0_69_1414">
<rect width="17" height="14" fill="white" transform="matrix(-4.37114e-08 1 1 4.37114e-08 0.5 0.5)"/>
</clipPath>
</defs>
</svg>
