<svg width="13" height="13" viewBox="0 0 13 13" fill="none" xmlns="http://www.w3.org/2000/svg">
<path d="M9.25 7.60242L9.125 7.82117L12.5 11.2274L11.4375 12.2899L8.0625 8.88367L7.84375 9.03992C7.01042 9.56075 6.14583 9.82117 5.25 9.82117C3.9375 9.82117 2.81771 9.35242 1.89062 8.41492C0.963542 7.47742 0.5 6.35242 0.5 5.03992C0.5 3.72742 0.963542 2.60763 1.89062 1.68054C2.81771 0.753459 3.9375 0.289917 5.25 0.289917C6.5625 0.289917 7.68229 0.753459 8.60938 1.68054C9.53646 2.60763 10 3.72742 10 5.03992C10 5.95658 9.75 6.81075 9.25 7.60242ZM7.90625 2.38367C7.17708 1.6545 6.29167 1.28992 5.25 1.28992C4.20833 1.28992 3.32292 1.6545 2.59375 2.38367C1.86458 3.11283 1.5 3.99825 1.5 5.03992C1.5 6.08158 1.86458 6.967 2.59375 7.69617C3.32292 8.42533 4.20833 8.78992 5.25 8.78992C6.29167 8.78992 7.17708 8.42533 7.90625 7.69617C8.65625 6.94617 9.03125 6.06075 9.03125 5.03992C9.03125 4.01908 8.65625 3.13367 7.90625 2.38367Z" fill="#888888"/>
</svg>
