<svg width="16" height="14" viewBox="0 0 16 14" fill="none" xmlns="http://www.w3.org/2000/svg">
<g clip-path="url(#clip0_71_4626)">
<path fill-rule="evenodd" clip-rule="evenodd" d="M6.94528 10.3729C6.99883 10.4733 7.07842 10.5569 7.17547 10.6148C7.27251 10.6727 7.38333 10.7027 7.49595 10.7014L8.72095 10.6825C8.83326 10.68 8.94278 10.6466 9.03775 10.5858C9.13271 10.525 9.20953 10.4391 9.25995 10.3374L9.74995 9.33999L10.6156 9.41444C10.7265 9.42336 10.8376 9.40182 10.9374 9.35212C11.0372 9.30241 11.1219 9.22636 11.1826 9.13199L11.8009 8.16053C11.8674 8.05592 11.9012 7.9335 11.8981 7.80917C11.895 7.68483 11.855 7.56432 11.7834 7.46326L11.3284 6.81799L11.8126 6.17035C11.9631 5.96944 11.9783 5.69526 11.8499 5.4778L11.2666 4.48744C11.2086 4.39031 11.1257 4.31096 11.0266 4.25788C10.9276 4.2048 10.8162 4.17998 10.7043 4.18608L9.78845 4.2428L9.22495 3.07399C9.17394 2.97008 9.09544 2.88258 8.99821 2.82123C8.90098 2.75987 8.78883 2.72709 8.67428 2.72653H7.41195C7.2976 2.72731 7.1857 2.7602 7.08869 2.82153C6.99168 2.88287 6.91337 2.97026 6.86245 3.07399L6.33278 4.1719L5.35278 4.08208C5.23981 4.07247 5.12641 4.09451 5.02497 4.14578C4.92354 4.19705 4.83796 4.27559 4.77762 4.3728L4.15812 5.38326C4.09241 5.49051 4.06056 5.61551 4.06681 5.74157C4.07307 5.86763 4.11713 5.98877 4.19312 6.0888L4.75312 6.82744L4.30278 7.46444C4.23139 7.56562 4.19165 7.6862 4.18874 7.81053C4.18583 7.93487 4.21987 8.05722 4.28645 8.16171L4.90478 9.13317C4.96539 9.22736 5.04991 9.30329 5.14947 9.35298C5.24903 9.40268 5.35996 9.42432 5.47062 9.41562L6.40045 9.33526L6.94528 10.3729ZM7.64295 9.81271L7.09228 8.76326C7.03544 8.65638 6.94916 8.56854 6.84394 8.51042C6.73872 8.4523 6.61909 8.42641 6.49962 8.43589L5.55462 8.51744L5.11828 7.83199L5.57795 7.18199C5.65442 7.07386 5.69456 6.94371 5.69246 6.81072C5.69036 6.67773 5.64613 6.54894 5.56628 6.44335L4.99695 5.69408L5.43562 4.97789L6.43428 5.07008C6.55802 5.08169 6.68233 5.0549 6.79068 4.99326C6.89904 4.93163 6.98633 4.83806 7.04095 4.72499L7.57645 3.61289H8.50978L9.07912 4.79117C9.1329 4.9006 9.21713 4.99169 9.3214 5.05322C9.42568 5.11475 9.54545 5.14403 9.66595 5.13744L10.5969 5.08071L11.0076 5.77799L10.5129 6.4398C10.4343 6.54533 10.3909 6.67356 10.3892 6.8058C10.3876 6.93803 10.4276 7.06735 10.5036 7.17489L10.9691 7.83199L10.5328 8.51744L9.64612 8.4418C9.52357 8.43122 9.40073 8.45826 9.29357 8.51938C9.1864 8.58051 9.09989 8.6729 9.04528 8.78453L8.54712 9.79853L7.64295 9.81271Z" fill="#464646"/>
<path d="M12.9968 5.05829C12.6429 3.95158 11.9405 2.99295 10.9973 2.3293C10.0541 1.66565 8.92211 1.3336 7.77478 1.38402C6.62744 1.43445 5.52807 1.86458 4.64515 2.60849C3.76223 3.3524 3.14445 4.36905 2.8865 5.50265L3.87933 5.7012L1.98933 7.68193L1 5.12093L2.0465 5.32893C2.33856 3.9982 3.05513 2.80196 4.08547 1.92504C5.11582 1.04812 6.40259 0.539348 7.74693 0.477344C9.09127 0.415339 10.4184 0.803555 11.5231 1.582C12.6279 2.36044 13.4488 3.48578 13.859 4.78411L12.9968 5.05829ZM13.9722 8.06011C13.68 9.39078 12.9633 10.5869 11.9328 11.4637C10.9024 12.3405 9.61562 12.8492 8.27129 12.911C6.92695 12.9729 5.59992 12.5846 4.49526 11.806C3.39059 11.0275 2.56978 9.90209 2.15967 8.60375L2.9915 8.32956C3.3453 9.43629 4.04757 10.395 4.9907 11.0587C5.93383 11.7225 7.06579 12.0546 8.21311 12.0043C9.36044 11.9541 10.4598 11.5241 11.3428 10.7803C12.2258 10.0365 12.8437 9.01993 13.1018 7.88638L12.109 7.68665L13.999 5.71065L15 8.26811L13.9722 8.06011Z" fill="#464646"/>
<path fill-rule="evenodd" clip-rule="evenodd" d="M8.0011 7.15599C7.88507 7.15599 7.77379 7.1093 7.69174 7.02619C7.60969 6.94308 7.5636 6.83035 7.5636 6.71281C7.5636 6.59527 7.60969 6.48255 7.69174 6.39944C7.77379 6.31632 7.88507 6.26963 8.0011 6.26963C8.11713 6.26963 8.22841 6.31632 8.31046 6.39944C8.3925 6.48255 8.4386 6.59527 8.4386 6.71281C8.4386 6.83035 8.3925 6.94308 8.31046 7.02619C8.22841 7.1093 8.11713 7.15599 8.0011 7.15599ZM6.6886 6.71281C6.6886 7.06543 6.82688 7.40361 7.07302 7.65294C7.31916 7.90228 7.653 8.04236 8.0011 8.04236C8.3492 8.04236 8.68303 7.90228 8.92918 7.65294C9.17532 7.40361 9.3136 7.06543 9.3136 6.71281C9.3136 6.3602 9.17532 6.02202 8.92918 5.77268C8.68303 5.52334 8.3492 5.38327 8.0011 5.38327C7.653 5.38327 7.31916 5.52334 7.07302 5.77268C6.82688 6.02202 6.6886 6.3602 6.6886 6.71281Z" fill="#464646"/>
</g>
<defs>
<clipPath id="clip0_71_4626">
<rect width="14" height="13" fill="white" transform="matrix(1 0 0 -1 1 13)"/>
</clipPath>
</defs>
</svg>
