<svg width="16" height="16" viewBox="0 0 16 16" fill="none" xmlns="http://www.w3.org/2000/svg">
<path d="M14.6562 2C14.8854 2 15 2.11458 15 2.34375V10.6562C15 10.8854 14.8854 11 14.6562 11H1.34375C1.11458 11 1 10.8854 1 10.6562V2.34375C1 2.11458 1.11458 2 1.34375 2H14.6562ZM14 10V3H2V10H14ZM9.4375 14H6.5625C5.83333 14 5.47917 13.9271 5.5 13.7812C5.5 13.7396 5.54167 13.6875 5.625 13.625C5.70833 13.5625 5.83854 13.4792 6.01562 13.375C6.19271 13.2708 6.32812 13.1823 6.42188 13.1094C6.51562 13.0365 6.5625 12.9688 6.5625 12.9062L6.59375 11.5H8H9.40625C9.42708 12.3542 9.4375 12.8229 9.4375 12.9062C9.4375 12.9688 9.48438 13.0365 9.57812 13.1094C9.67188 13.1823 9.80729 13.2708 9.98438 13.375C10.1615 13.4792 10.2917 13.5625 10.375 13.625C10.625 13.8125 10.5104 13.9271 10.0312 13.9688L9.4375 14Z" fill="white"/>
</svg>
