<svg width="16" height="16" viewBox="0 0 16 16" fill="none" xmlns="http://www.w3.org/2000/svg">
<path d="M12.4375 5.42126C12.4792 5.54626 12.5 5.65043 12.5 5.73376V13.39C12.5 13.5983 12.4323 13.7754 12.2969 13.9213C12.1615 14.0671 12 14.14 11.8125 14.14H4.21875C4.03125 14.14 3.86458 14.0671 3.71875 13.9213C3.57292 13.7754 3.5 13.5983 3.5 13.39V2.89001C3.5 2.68168 3.57292 2.5046 3.71875 2.35876C3.86458 2.21293 4.03125 2.14001 4.21875 2.14001H9.21875C9.34375 2.14001 9.4375 2.16085 9.5 2.20251C9.58333 2.24418 9.65625 2.29626 9.71875 2.35876L12.3438 5.23376L12.4375 5.42126ZM5 5.73376V6.04626C5 6.10876 5.03125 6.14001 5.09375 6.14001H7.3125C7.375 6.14001 7.40625 6.10876 7.40625 6.04626V5.73376C7.40625 5.67126 7.375 5.64001 7.3125 5.64001H5.09375C5.03125 5.64001 5 5.67126 5 5.73376ZM5 9.73376V10.0463C5 10.1088 5.03125 10.14 5.09375 10.14H8.9375C8.97917 10.14 9 10.1088 9 10.0463V9.73376C9 9.67126 8.97917 9.64001 8.9375 9.64001H5.09375C5.03125 9.64001 5 9.67126 5 9.73376ZM10 12.0463V11.7338C10 11.6713 9.97917 11.64 9.9375 11.64H5.09375C5.03125 11.64 5 11.6713 5 11.7338V12.0463C5 12.1088 5.03125 12.14 5.09375 12.14H9.9375C9.97917 12.14 10 12.1088 10 12.0463ZM11 8.04626V7.73376C11 7.67126 10.9792 7.64001 10.9375 7.64001H5.09375C5.03125 7.64001 5 7.67126 5 7.73376V8.04626C5 8.10876 5.03125 8.14001 5.09375 8.14001H10.9375C10.9792 8.14001 11 8.10876 11 8.04626ZM9.53125 5.70251H11.4062L9.1875 3.26501V5.32751C9.1875 5.57751 9.30208 5.70251 9.53125 5.70251Z" fill="#464646"/>
</svg>
