<svg width="16" height="20" viewBox="0 0 16 20" fill="none" xmlns="http://www.w3.org/2000/svg">
<g clip-path="url(#clip0_69_1672)">
<path d="M7.70837 14.7333C8.59275 14.7333 9.03462 14.7333 9.30837 15.0083C9.58337 15.2827 9.58337 15.7239 9.58337 16.6083C9.58337 17.4927 9.58337 17.9345 9.30837 18.2083C9.034 18.4833 8.59275 18.4833 7.70837 18.4833C6.824 18.4833 6.38212 18.4833 6.10837 18.2083C5.83337 17.9339 5.83337 17.492 5.83337 16.6083C5.83337 15.7239 5.83337 15.282 6.10837 15.0083C6.38275 14.7333 6.824 14.7333 7.70837 14.7333ZM7.70837 14.7333V14.1083M3.33337 9.73328C2.449 9.73328 2.00712 9.73328 1.73337 9.45828C1.45837 9.1839 1.45837 8.74203 1.45837 7.85828C1.45837 6.9739 1.45837 6.53203 1.73337 6.25828C2.00775 5.98328 2.449 5.98328 3.33337 5.98328C4.21775 5.98328 4.65962 5.98328 4.93337 6.25828C5.20837 6.53265 5.20837 6.9739 5.20837 7.85828C5.20837 8.74265 5.20837 9.18453 4.93337 9.45828C4.659 9.73328 4.21775 9.73328 3.33337 9.73328ZM3.33337 9.73328V10.3583C3.33337 10.9408 3.33337 11.232 3.44462 11.4614C3.59212 11.7677 3.8765 12.0114 4.23337 12.1383C4.50212 12.2333 4.8415 12.2333 5.52087 12.2333C6.20025 12.2333 6.53962 12.2333 6.80837 12.3283C7.16587 12.4552 7.44962 12.6989 7.59712 13.0052C7.70837 13.2345 7.70837 13.5258 7.70837 14.1083M12.0834 9.73328C11.199 9.73328 10.7571 9.73328 10.4834 9.45828C10.2084 9.1839 10.2084 8.74203 10.2084 7.85828C10.2084 6.9739 10.2084 6.53203 10.4834 6.25828C10.7577 5.98328 11.1996 5.98328 12.0834 5.98328C12.9671 5.98328 13.409 5.98328 13.6834 6.25828C13.9584 6.53265 13.9584 6.97453 13.9584 7.85828C13.9584 8.74203 13.9584 9.1839 13.6834 9.45828C13.409 9.73328 12.9677 9.73328 12.0834 9.73328ZM12.0834 9.73328V10.3583C12.0834 10.9408 12.0834 11.232 11.9721 11.4614C11.8246 11.7677 11.5402 12.0114 11.1834 12.1383C10.9146 12.2333 10.5752 12.2333 9.89587 12.2333C9.2165 12.2333 8.87712 12.2333 8.60837 12.3283C8.25087 12.4552 7.96712 12.6989 7.81962 13.0052C7.70837 13.2345 7.70837 13.5258 7.70837 14.1083" stroke="#464646" stroke-linecap="round" stroke-linejoin="round"/>
</g>
<defs>
<clipPath id="clip0_69_1672">
<rect width="16" height="20" fill="white" transform="matrix(1 0 0 -1 0 20)"/>
</clipPath>
</defs>
</svg>
