<svg width="16" height="16" viewBox="0 0 16 16" fill="none" xmlns="http://www.w3.org/2000/svg">
<g clip-path="url(#clip0_71_5584)">
<path fill-rule="evenodd" clip-rule="evenodd" d="M8.25003 14.5985C11.932 14.5985 14.9167 11.6138 14.9167 7.93185C14.9167 4.24998 11.932 1.26517 8.25003 1.26517C4.56816 1.26517 1.58337 4.24995 1.58337 7.93185C1.58337 11.6138 4.56816 14.5985 8.25003 14.5985ZM8.91816 8.59851H7.58484V4.59851H8.91816V8.59851ZM8.25681 11.4319C7.77075 11.4319 7.41816 11.0812 7.41816 10.6078C7.41816 10.1151 7.76147 9.76517 8.25681 9.76517C8.73291 9.76517 9.08484 10.1152 9.08484 10.5985C9.08484 11.0812 8.73291 11.4319 8.25681 11.4319Z" fill="#464646"/>
</g>
<defs>
<clipPath id="clip0_71_5584">
<rect width="16" height="16" fill="white" transform="matrix(1 0 0 -1 0 16)"/>
</clipPath>
</defs>
</svg>
