<svg width="17" height="17" viewBox="0 0 17 17" fill="none" xmlns="http://www.w3.org/2000/svg">
<g clip-path="url(#clip0_71_4650)">
<path d="M2.21999 5.87995C2.21999 6.36357 2.41211 6.82738 2.75408 7.16936C3.09606 7.51133 3.55987 7.70345 4.04349 7.70345C4.52712 7.70345 4.99093 7.51133 5.3329 7.16936C5.67487 6.82738 5.86699 6.36357 5.86699 5.87995C5.86699 5.39632 5.67487 4.93251 5.3329 4.59054C4.99093 4.24856 4.52712 4.05645 4.04349 4.05645C3.55987 4.05645 3.09606 4.24856 2.75408 4.59054C2.41211 4.93251 2.21999 5.39632 2.21999 5.87995ZM15.4662 2.27945L15.4662 5.5867L15.9607 5.5867C15.983 5.58676 16.0051 5.58242 16.0257 5.57393C16.0463 5.56544 16.0651 5.55296 16.0808 5.53721C16.0966 5.52146 16.1091 5.50275 16.1176 5.48216C16.1262 5.46156 16.1305 5.43948 16.1305 5.4172L16.1305 1.1497C16.1305 1.0052 16.0227 0.887695 15.875 0.887695L13.6882 0.887696C13.5407 0.887696 13.4327 1.00495 13.4327 1.1492L13.4327 1.3997L10.052 1.3997C9.95749 1.3997 9.88199 1.47545 9.88199 1.5687L9.88199 2.5282L12.768 2.5282L12.768 2.27695C12.768 2.1327 12.876 2.01545 13.024 2.01545L15.21 2.01545C15.358 2.01545 15.4662 2.1347 15.4662 2.27945Z" fill="#464646"/>
<path d="M8.55265 7.5892C8.55265 7.61148 8.55705 7.63353 8.56561 7.6541C8.57416 7.67467 8.5867 7.69335 8.6025 7.70905C8.6183 7.72476 8.63705 7.73719 8.65767 7.74562C8.67829 7.75406 8.70037 7.75833 8.72265 7.7582L14.6314 7.7582C14.6537 7.7583 14.6758 7.75399 14.6964 7.74553C14.717 7.73706 14.7357 7.72461 14.7515 7.70888C14.7672 7.69315 14.7798 7.67445 14.7883 7.65387C14.7968 7.63329 14.8012 7.61123 14.8011 7.58895L14.8011 3.32145C14.8011 3.17695 14.6934 3.05945 14.5456 3.05945L12.3594 3.05945C12.2114 3.05945 12.1034 3.1767 12.1034 3.32095L12.1034 3.57145L8.72265 3.57145C8.6284 3.57145 8.55265 3.6472 8.55265 3.74045L8.55265 7.5892ZM11.1736 5.15945L11.1736 4.15295L12.1806 4.15295L12.1806 5.15945L13.1874 5.15945L13.1874 6.16645L12.1806 6.16645L12.1806 7.1732L11.1736 7.1732L11.1736 6.16645L10.1669 6.16645L10.1669 5.15945L11.1736 5.15945ZM2.24165 8.1732C2.00151 8.17297 1.76368 8.22007 1.54176 8.31181C1.31983 8.40354 1.11816 8.53812 0.948279 8.70784C0.778394 8.87757 0.643625 9.0791 0.551675 9.30094C0.459726 9.52278 0.412398 9.76056 0.412398 10.0007L0.408649 16.6839L6.54465 16.6839L6.54465 11.1437L6.79315 11.1437L7.92465 12.8319C8.1089 13.0832 8.4829 13.2049 8.78115 13.2049L11.4376 13.2049C11.6495 13.205 11.8527 13.121 12.0026 12.9713C12.1525 12.8216 12.2369 12.6185 12.2371 12.4067C12.2371 11.9667 11.8789 11.6192 11.4376 11.6192L9.0214 11.6192L7.34515 9.0847C6.94365 8.4717 6.15815 8.17545 5.5259 8.17545L2.2419 8.17345L2.24165 8.1732Z" fill="#464646"/>
</g>
<defs>
<clipPath id="clip0_71_4650">
<rect width="17" height="16" fill="white" transform="matrix(1 0 0 -1 0 17)"/>
</clipPath>
</defs>
</svg>
