<svg width="16" height="16" viewBox="0 0 16 16" fill="none" xmlns="http://www.w3.org/2000/svg">
<g clip-path="url(#clip0_71_5578)">
<path d="M7.66667 1.33337C3.98667 1.33337 1 4.32004 1 8.00004C1 11.68 3.98667 14.6667 7.66667 14.6667C11.3467 14.6667 14.3333 11.68 14.3333 8.00004C14.3333 4.32004 11.3467 1.33337 7.66667 1.33337ZM8.33333 12.6667L7 12.6667L7 11.3334L8.33333 11.3334L8.33333 12.6667ZM9.71333 7.50004L9.11333 8.11337C8.78 8.45337 8.54 8.76004 8.42 9.24004C8.36667 9.45337 8.33333 9.69337 8.33333 10L7 10L7 9.66671C6.99973 9.31641 7.06847 8.96949 7.2023 8.64577C7.33614 8.32205 7.53244 8.02787 7.78 7.78004L8.60667 6.94004C8.91333 6.64671 9.06 6.20671 8.97333 5.74004C8.92711 5.50146 8.81624 5.28015 8.65283 5.10028C8.48941 4.92041 8.27973 4.78888 8.04667 4.72004C7.30667 4.51337 6.62 4.93337 6.4 5.56671C6.32 5.81337 6.11333 6.00004 5.85333 6.00004L5.65333 6.00004C5.26667 6.00004 5 5.62671 5.10667 5.25337C5.2498 4.7671 5.52823 4.33154 5.90949 3.99749C6.29075 3.66345 6.75913 3.44468 7.26 3.36671C8.27333 3.20671 9.24 3.73337 9.84 4.56671C10.6267 5.65337 10.3933 6.82004 9.71333 7.50004Z" fill="#464646"/>
</g>
<defs>
<clipPath id="clip0_71_5578">
<rect width="16" height="16" fill="white" transform="matrix(1 0 0 -1 0 16)"/>
</clipPath>
</defs>
</svg>
