<svg width="17" height="18" viewBox="0 0 17 18" fill="none" xmlns="http://www.w3.org/2000/svg">
<g clip-path="url(#clip0_71_4619)">
<path d="M1.31147 12.1212L5.3521 16.115C7.00835 17.7525 9.67085 17.7525 11.3271 16.115L14.8677 12.615C15.1615 12.3243 15.1646 11.8493 14.874 11.5556C14.5833 11.2618 14.1083 11.2587 13.8146 11.5493L10.274 15.0462C9.2021 16.1056 7.48022 16.1056 6.40835 15.0462L2.36772 11.0556C2.07397 10.765 1.59897 10.7681 1.30835 11.0618C1.01772 11.3556 1.02085 11.8306 1.3146 12.1212L1.31147 12.1212ZM7.26147 1.33997L2.5896 1.33997C1.76147 1.33997 1.0896 2.01184 1.0896 2.83997L1.0896 7.51184C1.0896 8.04309 1.29897 8.55247 1.67397 8.92747L6.92397 14.1775C7.70522 14.9587 8.97085 14.9587 9.7521 14.1775L13.924 10.0056C14.7052 9.22434 14.7052 7.95872 13.924 7.17747L8.67397 1.92747C8.29897 1.54934 7.79272 1.33997 7.26147 1.33997ZM4.5896 5.83997C4.32438 5.83997 4.07003 5.73461 3.88249 5.54707C3.69496 5.35954 3.5896 5.10518 3.5896 4.83997C3.5896 4.57475 3.69496 4.3204 3.88249 4.13286C4.07003 3.94532 4.32438 3.83997 4.5896 3.83997C4.85482 3.83997 5.10917 3.94532 5.29671 4.13286C5.48424 4.3204 5.5896 4.57475 5.5896 4.83997C5.5896 5.10518 5.48424 5.35954 5.29671 5.54707C5.10917 5.73461 4.85482 5.83997 4.5896 5.83997Z" fill="#464646"/>
</g>
<defs>
<clipPath id="clip0_71_4619">
<rect width="17" height="16" fill="white" transform="matrix(-4.37114e-08 1 1 4.37114e-08 0.25 0.839966)"/>
</clipPath>
</defs>
</svg>
