<svg width="15" height="15" viewBox="0 0 15 15" fill="none" xmlns="http://www.w3.org/2000/svg">
<g clip-path="url(#clip0_69_1336)">
<g clip-path="url(#clip1_69_1336)">
<path d="M7.07937 1.00745L2 5.62495L3.85812 5.62495L7.5 2.31433L11.25 5.7237L11.25 11.875L8.125 11.875L8.125 13.125L11.875 13.125C12.0408 13.125 12.1997 13.0591 12.3169 12.9419C12.4342 12.8247 12.5 12.6657 12.5 12.5L12.5 6.87495L14.375 6.87495L7.92062 1.00745C7.80556 0.902749 7.65557 0.844727 7.5 0.844727C7.34443 0.844727 7.19444 0.902749 7.07937 1.00745ZM6.25 6.87495L0.625 6.87495L0.625 11.25L6.25 11.25L6.25 6.87495ZM5 8.12495L5 9.99995L1.875 9.99995L1.875 8.12495L5 8.12495ZM1.19897e-07 13.125L6.875 13.125L6.875 11.875L1.06185e-08 11.875L1.19897e-07 13.125Z" fill="#7CBB00"/>
</g>
</g>
<defs>
<clipPath id="clip0_69_1336">
<rect width="15" height="15" fill="white" transform="matrix(1 0 0 -1 0 15)"/>
</clipPath>
<clipPath id="clip1_69_1336">
<rect width="15" height="15" fill="white" transform="matrix(-1 8.74228e-08 8.74228e-08 1 15 0)"/>
</clipPath>
</defs>
</svg>
