<svg width="16" height="16" viewBox="0 0 16 16" fill="none" xmlns="http://www.w3.org/2000/svg">
<g clip-path="url(#clip0_69_1348)">
<g clip-path="url(#clip1_69_1348)">
<path fill-rule="evenodd" clip-rule="evenodd" d="M-0.199951 14.14C-0.199951 14.3389 -0.120934 14.5297 0.0197187 14.6703C0.160371 14.811 0.351136 14.89 0.550049 14.89H6.55005C6.74896 14.89 6.93973 14.811 7.08038 14.6703C7.22103 14.5297 7.30005 14.3389 7.30005 14.14C7.30005 13.9411 7.22103 13.7503 7.08038 13.6097C6.93973 13.469 6.74896 13.39 6.55005 13.39H6.30005V11.14C6.30005 11.0074 6.35273 10.8802 6.4465 10.7865C6.54026 10.6927 6.66744 10.64 6.80005 10.64H9.05005C10.575 10.64 12.0376 10.0342 13.1159 8.95588C14.1942 7.87754 14.8 6.41501 14.8 4.89001V2.39001H15.05C15.249 2.39001 15.4397 2.311 15.5804 2.17034C15.721 2.02969 15.8 1.83893 15.8 1.64001C15.8 1.4411 15.721 1.25034 15.5804 1.10968C15.4397 0.969032 15.249 0.890015 15.05 0.890015H9.05005C8.85114 0.890015 8.66037 0.969032 8.51972 1.10968C8.37907 1.25034 8.30005 1.4411 8.30005 1.64001C8.30005 1.83893 8.37907 2.02969 8.51972 2.17034C8.66037 2.311 8.85114 2.39001 9.05005 2.39001H9.30005V4.64001C9.30005 4.77262 9.24737 4.8998 9.1536 4.99357C9.05983 5.08734 8.93266 5.14001 8.80005 5.14001H6.55005C5.02505 5.14001 3.56252 5.74582 2.48418 6.82415C1.40585 7.90249 0.800049 9.36502 0.800049 10.89V13.39H0.550049C0.351136 13.39 0.160371 13.469 0.0197187 13.6097C-0.120934 13.7503 -0.199951 13.9411 -0.199951 14.14ZM10.8 2.39001H13.3V4.89001C13.3 6.01719 12.8523 7.09819 12.0553 7.89522C11.2582 8.69225 10.1772 9.14001 9.05005 9.14001H8.55005V6.64001H8.80005C9.33048 6.64001 9.83919 6.4293 10.2143 6.05423C10.5893 5.67916 10.8 5.17045 10.8 4.64001V2.39001ZM2.30005 13.39H4.80005V11.14C4.80005 10.6096 5.01076 10.1009 5.38584 9.7258C5.76091 9.35073 6.26962 9.14001 6.80005 9.14001H7.05005V6.64001H6.55005C5.42288 6.64001 4.34187 7.08778 3.54485 7.88481C2.74782 8.68184 2.30005 9.76284 2.30005 10.89V13.39Z" fill="#F65314"/>
</g>
</g>
<defs>
<clipPath id="clip0_69_1348">
<rect width="16" height="16" fill="white" transform="matrix(1 0 0 -1 0 16)"/>
</clipPath>
<clipPath id="clip1_69_1348">
<rect width="16" height="16" fill="white" transform="matrix(1 0 0 -1 -0.199951 15.89)"/>
</clipPath>
</defs>
</svg>
