<svg width="34" height="40" viewBox="0 0 34 40" fill="none" xmlns="http://www.w3.org/2000/svg">
<g clip-path="url(#clip0_69_1048)">
<path d="M7.00118 2L15.3436 2C16.4041 2.00023 17.4212 2.42172 18.171 3.17177L29.5888 14.5896C30.4924 15.4933 31 16.7189 31 17.9969C31 19.2749 30.4924 20.5005 29.5888 21.4042L22.4062 28.5869C21.5025 29.4905 20.2768 29.9981 18.9989 29.9981C17.7209 29.9981 16.4952 29.4905 15.5915 28.5869L4.17373 17.1691C3.42367 16.4192 3.00218 15.4022 3.00195 14.3416L3.00195 5.99923C3.00195 4.93857 3.4233 3.92135 4.1733 3.17135C4.9233 2.42135 5.94052 2 7.00118 2Z" stroke="#464646" stroke-width="3" stroke-linecap="round" stroke-linejoin="round"/>
<path d="M28.9969 31.994L25.8135 35.1774C24.0061 36.9846 21.5548 37.9999 18.9989 37.9999C16.4429 37.9999 13.9916 36.9846 12.1842 35.1774L3.00195 25.9952M11.0004 9.9983L11.0004 9.9783" stroke="#464646" stroke-width="3" stroke-linecap="round" stroke-linejoin="round"/>
</g>
<defs>
<clipPath id="clip0_69_1048">
<rect width="40" height="34" fill="white" transform="matrix(-4.37114e-08 1 1 4.37114e-08 0 0)"/>
</clipPath>
</defs>
</svg>
