<svg width="14" height="14" viewBox="0 0 14 14" fill="none" xmlns="http://www.w3.org/2000/svg">
<path d="M3.25 2.97656C3.25 3.15885 3.15885 3.25 2.97656 3.25H1.02344C0.841146 3.25 0.75 3.15885 0.75 2.97656V1.02344C0.75 0.841146 0.841146 0.75 1.02344 0.75H2.97656C3.15885 0.75 3.25 0.841146 3.25 1.02344V2.97656ZM8.25 2.97656C8.25 3.15885 8.15885 3.25 7.97656 3.25H6.02344C5.84115 3.25 5.75 3.15885 5.75 2.97656V1.02344C5.75 0.841146 5.84115 0.75 6.02344 0.75H7.97656C8.15885 0.75 8.25 0.841146 8.25 1.02344V2.97656ZM13.25 2.97656C13.25 3.15885 13.1589 3.25 12.9766 3.25H11.0234C10.8411 3.25 10.75 3.15885 10.75 2.97656V1.02344C10.75 0.841146 10.8411 0.75 11.0234 0.75H12.9766C13.1589 0.75 13.25 0.841146 13.25 1.02344V2.97656ZM3.25 7.97656C3.25 8.15885 3.15885 8.25 2.97656 8.25H1.02344C0.841146 8.25 0.75 8.15885 0.75 7.97656V6.02344C0.75 5.84115 0.841146 5.75 1.02344 5.75H2.97656C3.15885 5.75 3.25 5.84115 3.25 6.02344V7.97656ZM8.25 7.97656C8.25 8.15885 8.15885 8.25 7.97656 8.25H6.02344C5.84115 8.25 5.75 8.15885 5.75 7.97656V6.02344C5.75 5.84115 5.84115 5.75 6.02344 5.75H7.97656C8.15885 5.75 8.25 5.84115 8.25 6.02344V7.97656ZM13.25 7.97656C13.25 8.15885 13.1589 8.25 12.9766 8.25H11.0234C10.8411 8.25 10.75 8.15885 10.75 7.97656V6.02344C10.75 5.84115 10.8411 5.75 11.0234 5.75H12.9766C13.1589 5.75 13.25 5.84115 13.25 6.02344V7.97656ZM3.25 12.9766C3.25 13.1589 3.15885 13.25 2.97656 13.25H1.02344C0.841146 13.25 0.75 13.1589 0.75 12.9766V11.0234C0.75 10.8411 0.841146 10.75 1.02344 10.75H2.97656C3.15885 10.75 3.25 10.8411 3.25 11.0234V12.9766ZM8.25 12.9766C8.25 13.1589 8.15885 13.25 7.97656 13.25H6.02344C5.84115 13.25 5.75 13.1589 5.75 12.9766V11.0234C5.75 10.8411 5.84115 10.75 6.02344 10.75H7.97656C8.15885 10.75 8.25 10.8411 8.25 11.0234V12.9766ZM13.25 12.9766C13.25 13.1589 13.1589 13.25 12.9766 13.25H11.0234C10.8411 13.25 10.75 13.1589 10.75 12.9766V11.0234C10.75 10.8411 10.8411 10.75 11.0234 10.75H12.9766C13.1589 10.75 13.25 10.8411 13.25 11.0234V12.9766Z" fill="white"/>
</svg>
