<svg width="14" height="20" viewBox="0 0 14 20" fill="none" xmlns="http://www.w3.org/2000/svg">
<g clip-path="url(#clip0_69_1569)">
<path d="M3.25 5.97656C3.25 6.15885 3.15885 6.25 2.97656 6.25H1.02344C0.841146 6.25 0.75 6.15885 0.75 5.97656V4.02344C0.75 3.84115 0.841146 3.75 1.02344 3.75H2.97656C3.15885 3.75 3.25 3.84115 3.25 4.02344V5.97656ZM8.25 5.97656C8.25 6.15885 8.15885 6.25 7.97656 6.25H6.02344C5.84115 6.25 5.75 6.15885 5.75 5.97656V4.02344C5.75 3.84115 5.84115 3.75 6.02344 3.75H7.97656C8.15885 3.75 8.25 3.84115 8.25 4.02344V5.97656ZM13.25 5.97656C13.25 6.15885 13.1589 6.25 12.9766 6.25H11.0234C10.8411 6.25 10.75 6.15885 10.75 5.97656V4.02344C10.75 3.84115 10.8411 3.75 11.0234 3.75H12.9766C13.1589 3.75 13.25 3.84115 13.25 4.02344V5.97656ZM3.25 10.9766C3.25 11.1589 3.15885 11.25 2.97656 11.25H1.02344C0.841146 11.25 0.75 11.1589 0.75 10.9766V9.02344C0.75 8.84115 0.841146 8.75 1.02344 8.75H2.97656C3.15885 8.75 3.25 8.84115 3.25 9.02344V10.9766ZM8.25 10.9766C8.25 11.1589 8.15885 11.25 7.97656 11.25H6.02344C5.84115 11.25 5.75 11.1589 5.75 10.9766V9.02344C5.75 8.84115 5.84115 8.75 6.02344 8.75H7.97656C8.15885 8.75 8.25 8.84115 8.25 9.02344V10.9766ZM13.25 10.9766C13.25 11.1589 13.1589 11.25 12.9766 11.25H11.0234C10.8411 11.25 10.75 11.1589 10.75 10.9766V9.02344C10.75 8.84115 10.8411 8.75 11.0234 8.75H12.9766C13.1589 8.75 13.25 8.84115 13.25 9.02344V10.9766ZM3.25 15.9766C3.25 16.1589 3.15885 16.25 2.97656 16.25H1.02344C0.841146 16.25 0.75 16.1589 0.75 15.9766V14.0234C0.75 13.8411 0.841146 13.75 1.02344 13.75H2.97656C3.15885 13.75 3.25 13.8411 3.25 14.0234V15.9766ZM8.25 15.9766C8.25 16.1589 8.15885 16.25 7.97656 16.25H6.02344C5.84115 16.25 5.75 16.1589 5.75 15.9766V14.0234C5.75 13.8411 5.84115 13.75 6.02344 13.75H7.97656C8.15885 13.75 8.25 13.8411 8.25 14.0234V15.9766ZM13.25 15.9766C13.25 16.1589 13.1589 16.25 12.9766 16.25H11.0234C10.8411 16.25 10.75 16.1589 10.75 15.9766V14.0234C10.75 13.8411 10.8411 13.75 11.0234 13.75H12.9766C13.1589 13.75 13.25 13.8411 13.25 14.0234V15.9766Z" fill="white"/>
</g>
<defs>
<clipPath id="clip0_69_1569">
<rect width="13" height="20" fill="white" transform="matrix(1 0 0 -1 0.5 20)"/>
</clipPath>
</defs>
</svg>
