<svg width="14" height="14" viewBox="0 0 14 14" fill="none" xmlns="http://www.w3.org/2000/svg">
<g clip-path="url(#clip0_78_23)">
<path d="M2.91675 6.41663L2.91675 10.5M5.83341 5.83329L8.45841 8.45829M6.41675 2.91663L10.5001 2.91663" stroke="#464646" stroke-width="0.75" stroke-linecap="round" stroke-linejoin="round"/>
<path d="M6.35141 3.75896C6.35141 5.19067 5.19079 6.35129 3.75908 6.35129C2.32737 6.35129 1.16675 5.19067 1.16675 3.75896C1.16675 2.32725 2.32738 1.16663 3.75908 1.16663C5.19079 1.16663 6.35141 2.32725 6.35141 3.75896Z" stroke="#464646" stroke-width="0.75" stroke-linecap="round" stroke-linejoin="round"/>
<path d="M12.8333 2.91667C12.8333 3.561 12.311 4.08333 11.6667 4.08333C11.0223 4.08333 10.5 3.561 10.5 2.91667C10.5 2.27233 11.0223 1.75 11.6667 1.75C12.311 1.75 12.8333 2.27233 12.8333 2.91667Z" stroke="#464646" stroke-width="0.75" stroke-linecap="round" stroke-linejoin="round"/>
<path d="M10.5001 9.33329C10.5001 9.97763 9.97775 10.5 9.33341 10.5C8.68908 10.5 8.16675 9.97763 8.16675 9.33329C8.16675 8.68896 8.68908 8.16663 9.33341 8.16663C9.97775 8.16663 10.5001 8.68896 10.5001 9.33329Z" stroke="#464646" stroke-width="0.75" stroke-linecap="round" stroke-linejoin="round"/>
<path d="M4.08333 11.6667C4.08333 12.311 3.561 12.8333 2.91667 12.8333C2.27233 12.8333 1.75 12.311 1.75 11.6667C1.75 11.0223 2.27233 10.5 2.91667 10.5C3.561 10.5 4.08333 11.0223 4.08333 11.6667Z" stroke="#464646" stroke-width="0.75" stroke-linecap="round" stroke-linejoin="round"/>
</g>
<defs>
<clipPath id="clip0_78_23">
<rect width="14" height="14" fill="white" transform="matrix(-4.37114e-08 1 1 4.37114e-08 0 0)"/>
</clipPath>
</defs>
</svg>
