<svg width="13" height="14" viewBox="0 0 13 14" fill="none" xmlns="http://www.w3.org/2000/svg">
<g clip-path="url(#clip0_69_1426)">
<path d="M6.5 2.2C6.5 3.193 6.28917 3.4 5.27778 3.4H2.83333C1.82194 3.4 1.61111 3.193 1.61111 2.2C1.61111 1.207 1.82194 1 2.83333 1H5.27778C6.28917 1 6.5 1.207 6.5 2.2ZM6.5 2.2H7.11111C8.26367 2.2 8.83933 2.2 9.19744 2.5516C9.55556 2.9032 9.55556 3.4684 9.55556 4.6V5.2M9.55556 7.6C9.55556 7.879 9.55556 8.0182 9.53233 8.134C9.48521 8.36689 9.36878 8.58083 9.19778 8.74873C9.02677 8.91662 8.80887 9.03094 8.57167 9.0772C8.45372 9.1 8.31194 9.1 8.02778 9.1H4.97222C4.68806 9.1 4.54628 9.1 4.42833 9.1228C4.19113 9.16906 3.97323 9.28338 3.80222 9.45127C3.63122 9.61917 3.51479 9.83311 3.46767 10.066C3.44444 10.1818 3.44444 10.321 3.44444 10.6M1 11.8C1 12.793 1.21083 13 2.22222 13H4.66667C5.67806 13 5.88889 12.793 5.88889 11.8C5.88889 10.807 5.67806 10.6 4.66667 10.6H2.22222C1.21083 10.6 1 10.807 1 11.8ZM7.11111 6.4C7.11111 7.393 7.32194 7.6 8.33333 7.6H10.7778C11.7892 7.6 12 7.393 12 6.4C12 5.407 11.7892 5.2 10.7778 5.2H8.33333C7.32194 5.2 7.11111 5.407 7.11111 6.4Z" stroke="#464646" stroke-width="0.755" stroke-linecap="round" stroke-linejoin="round"/>
</g>
<defs>
<clipPath id="clip0_69_1426">
<rect width="13" height="14" fill="white" transform="matrix(1 0 0 -1 0 14)"/>
</clipPath>
</defs>
</svg>
