<svg width="14" height="14" viewBox="0 0 14 14" fill="none" xmlns="http://www.w3.org/2000/svg">
<g clip-path="url(#clip0_69_1438)">
<path d="M9.26561 2.03704H1.84462V11.0471L4.91012 8.10177L5.55511 7.48514L6.2001 8.10177L9.26561 11.0471V2.03704ZM9.35257 1.10847C9.46369 1.10847 9.56998 1.13023 9.67144 1.17376C9.83088 1.23663 9.9577 1.33577 10.0519 1.47119C10.1461 1.60661 10.1932 1.75653 10.1932 1.92097V11.272C10.1932 11.4364 10.1461 11.5863 10.0519 11.7217C9.9577 11.8572 9.83088 11.9563 9.67144 12.0192C9.57965 12.0579 9.47336 12.0772 9.35257 12.0772C9.12067 12.0772 8.92016 11.9998 8.75107 11.8451L5.55511 8.76918L2.35916 11.8451C2.18523 12.0047 1.98473 12.0845 1.75765 12.0845C1.64653 12.0845 1.54024 12.0627 1.43878 12.0192C1.27935 11.9563 1.15252 11.8572 1.05831 11.7217C0.964098 11.5863 0.916992 11.4364 0.916992 11.272V1.92097C0.916992 1.75653 0.964098 1.60661 1.05831 1.47119C1.15252 1.33577 1.27935 1.23663 1.43878 1.17376C1.54024 1.13023 1.64653 1.10847 1.75765 1.10847H9.35257Z" fill="#464646"/>
</g>
<defs>
<clipPath id="clip0_69_1438">
<rect width="12.57" height="13" fill="white" transform="matrix(1 0 0 -1 0.660156 13.6001)"/>
</clipPath>
</defs>
</svg>
