<svg width="13" height="14" viewBox="0 0 13 14" fill="none" xmlns="http://www.w3.org/2000/svg">
<g clip-path="url(#clip0_69_1402)">
<path d="M11.5591 2.83671C11.6944 2.97213 11.8104 3.15591 11.907 3.38805C12.0037 3.6202 12.052 3.83299 12.052 4.02645V12.3836C12.052 12.577 11.9844 12.7415 11.849 12.8769C11.7137 13.0123 11.5495 13.08 11.3562 13.08H1.61453C1.42125 13.08 1.25695 13.0123 1.12165 12.8769C0.986351 12.7415 0.918701 12.577 0.918701 12.3836V0.776446C0.918701 0.582994 0.986351 0.418559 1.12165 0.283142C1.25695 0.147726 1.42125 0.0800171 1.61453 0.0800171H8.10896C8.30224 0.0800171 8.51486 0.128381 8.7468 0.225107C8.97875 0.321833 9.16237 0.437904 9.29767 0.573321L11.5591 2.83671ZM8.3409 1.06662V3.7943H11.0662C11.0179 3.65405 10.9648 3.55491 10.9068 3.49687L8.63808 1.22622C8.58009 1.16819 8.48103 1.11499 8.3409 1.06662ZM11.1242 12.1514V4.72287H8.10896C7.91567 4.72287 7.75138 4.65517 7.61608 4.51975C7.48078 4.38433 7.41313 4.2199 7.41313 4.02645V1.00859H1.84648V12.1514H11.1242Z" fill="#464646"/>
</g>
<defs>
<clipPath id="clip0_69_1402">
<rect width="11.65" height="13" fill="white" transform="matrix(1 0 0 -1 0.660156 13.08)"/>
</clipPath>
</defs>
</svg>
