<svg width="12" height="12" viewBox="0 0 12 12" fill="none" xmlns="http://www.w3.org/2000/svg">
<g clip-path="url(#clip0_69_1432)">
<path d="M9 7.86805e-07L4.875 4.26186e-07C4.46081 3.89977e-07 4.125 0.335813 4.125 0.75L8.25 0.750001L8.25 3.75L11.25 3.75L11.25 9.75L8.625 9.75L8.625 10.5L11.25 10.5C11.6642 10.5 12 10.1642 12 9.75L12 3.00019L9 7.86805e-07ZM9 3L9 1.0605L10.9391 3L9 3ZM0.75 1.5C0.335812 1.5 -1.60492e-07 1.83581 -1.96701e-07 2.25L-9.83506e-07 11.25C-1.01972e-06 11.6642 0.335811 12 0.749999 12L7.125 12C7.53919 12 7.875 11.6642 7.875 11.25L7.875 4.50019L4.875 1.5L0.75 1.5ZM7.125 11.25L0.749999 11.25L0.75 2.25L4.125 2.25L4.125 5.25L7.125 5.25L7.125 11.25ZM4.875 4.5L4.875 2.5605L6.81413 4.5L4.875 4.5Z" fill="#464646"/>
</g>
<defs>
<clipPath id="clip0_69_1432">
<rect width="12" height="12" fill="white" transform="matrix(1 0 0 -1 0 12)"/>
</clipPath>
</defs>
</svg>
