<svg width="13" height="17" viewBox="0 0 13 17" fill="none" xmlns="http://www.w3.org/2000/svg">
<path d="M3.14231 15.8667L9.85782 15.8667C11.1669 15.8667 11.8182 15.2006 11.8182 13.8812L11.8182 8.12156C11.8182 7.30313 11.7298 6.94804 11.2239 6.42786L7.73309 2.86939C7.25283 2.37438 6.86053 2.26666 6.14608 2.26666L3.14231 2.26666C1.83968 2.26666 1.18188 2.93895 1.18188 4.25862L1.18188 13.8812C1.18188 15.2068 1.83968 15.8667 3.14231 15.8667ZM3.19276 14.8455C2.54145 14.8455 2.19987 14.4964 2.19987 13.8623L2.19987 4.27757C2.19987 3.64967 2.54145 3.28781 3.19924 3.28781L6.00686 3.28781L6.00686 6.97348C6.00686 7.7727 6.41157 8.16595 7.19563 8.16595L10.8003 8.16595L10.8003 13.8623C10.8003 14.4964 10.4649 14.8455 9.80737 14.8455L3.19276 14.8455ZM7.30949 7.20786C7.06289 7.20786 6.96144 7.10664 6.96144 6.85277L6.96144 3.48457L10.6038 7.20813L7.30949 7.20786ZM8.82716 9.91027L4.02728 9.91027C3.79983 9.91027 3.63552 10.0816 3.63552 10.2973C3.63552 10.5192 3.8001 10.6905 4.02755 10.6905L8.82716 10.6905C8.87887 10.6914 8.93023 10.6818 8.97817 10.6623C9.02611 10.6429 9.06966 10.6139 9.10624 10.5772C9.14281 10.5406 9.17165 10.4969 9.19106 10.4488C9.21046 10.4007 9.22003 10.3492 9.21919 10.2973C9.21919 10.0816 9.0484 9.91027 8.82716 9.91027ZM8.82716 12.1242L4.02728 12.1242C3.79983 12.1242 3.63552 12.3017 3.63552 12.5236C3.63552 12.7393 3.8001 12.9044 4.02755 12.9044L8.82716 12.9044C9.0484 12.9044 9.21919 12.7393 9.21919 12.5236C9.21919 12.3017 9.0484 12.1242 8.82716 12.1242Z" fill="#464646"/>
</svg>
